<svg width="25" height="24" viewBox="0 0 25 24" fill="none" xmlns="http://www.w3.org/2000/svg">
<g clip-path="url(#clip0_12_1886)">
<path d="M21.6966 4.60999C21.1858 4.099 20.5794 3.69364 19.912 3.41708C19.2445 3.14052 18.5291 2.99817 17.8066 2.99817C17.0841 2.99817 16.3687 3.14052 15.7012 3.41708C15.0338 3.69364 14.4274 4.099 13.9166 4.60999L12.8566 5.66999L11.7966 4.60999C10.7649 3.5783 9.36563 2.9987 7.9066 2.9987C6.44757 2.9987 5.04829 3.5783 4.0166 4.60999C2.98491 5.64169 2.40531 7.04096 2.40531 8.49999C2.40531 9.95903 2.98491 11.3583 4.0166 12.39L5.0766 13.45L12.8566 21.23L20.6366 13.45L21.6966 12.39C22.2076 11.8792 22.613 11.2728 22.8895 10.6053C23.1661 9.93789 23.3084 9.22248 23.3084 8.49999C23.3084 7.77751 23.1661 7.0621 22.8895 6.39464C22.613 5.72718 22.2076 5.12075 21.6966 4.60999V4.60999Z" stroke="#A9CCAC" stroke-width="2" stroke-linecap="round" stroke-linejoin="round"/>
</g>
<defs>
<clipPath id="clip0_12_1886">
<rect width="24" height="24" fill="white" transform="translate(0.856598)"/>
</clipPath>
</defs>
</svg>
