<svg width="25" height="24" viewBox="0 0 25 24" fill="none" xmlns="http://www.w3.org/2000/svg">
<path d="M21.8566 10C21.8566 17 12.8566 23 12.8566 23C12.8566 23 3.8566 17 3.8566 10C3.8566 7.61305 4.80481 5.32387 6.49264 3.63604C8.18046 1.94821 10.4696 1 12.8566 1C15.2435 1 17.5327 1.94821 19.2206 3.63604C20.9084 5.32387 21.8566 7.61305 21.8566 10Z" stroke="#A9CCAC" stroke-width="2" stroke-linecap="round" stroke-linejoin="round"/>
<path d="M12.8566 13C14.5135 13 15.8566 11.6569 15.8566 10C15.8566 8.34315 14.5135 7 12.8566 7C11.1997 7 9.8566 8.34315 9.8566 10C9.8566 11.6569 11.1997 13 12.8566 13Z" stroke="#A9CCAC" stroke-width="2" stroke-linecap="round" stroke-linejoin="round"/>
</svg>
