<svg width="25" height="24" viewBox="0 0 25 24" fill="none" xmlns="http://www.w3.org/2000/svg">
<path d="M21.8566 11.5C21.86 12.8199 21.5516 14.1219 20.9566 15.3C20.251 16.7117 19.1663 17.8992 17.824 18.7293C16.4817 19.5594 14.9348 19.9994 13.3566 20C12.0367 20.0034 10.7347 19.6951 9.55657 19.1L3.85657 21L5.75657 15.3C5.1615 14.1219 4.85313 12.8199 4.85657 11.5C4.85718 9.92176 5.29718 8.37485 6.12729 7.03255C6.95739 5.69025 8.14482 4.60557 9.55657 3.9C10.7347 3.30493 12.0367 2.99656 13.3566 3H13.8566C15.9409 3.11499 17.9096 3.99476 19.3857 5.47086C20.8618 6.94695 21.7416 8.91565 21.8566 11V11.5Z" stroke="#A9CCAC" stroke-width="2" stroke-linecap="round" stroke-linejoin="round"/>
</svg>
