<svg width="28" height="26" viewBox="0 0 28 26" fill="none" xmlns="http://www.w3.org/2000/svg">
<path d="M19.9721 6.85143L19.9721 17.682C19.9721 19.0088 19.445 20.2812 18.5068 21.2195C17.5686 22.1577 16.2961 22.6847 14.9693 22.6847C13.6425 22.6847 12.37 22.1577 11.4318 21.2195C10.4936 20.2812 9.96654 19.0088 9.96654 17.682L9.96654 6.85143C9.96654 5.96688 10.3179 5.11857 10.9434 4.4931C11.5689 3.86763 12.4172 3.51624 13.3017 3.51624C14.1863 3.51624 15.0346 3.86763 15.6601 4.4931C16.2855 5.11857 16.6369 5.96688 16.6369 6.85143L16.631 17.6878C16.631 18.1301 16.4553 18.5543 16.1426 18.867C15.8299 19.1797 15.4057 19.3554 14.9634 19.3554C14.5212 19.3554 14.097 19.1797 13.7843 18.867C13.4715 18.5543 13.2958 18.1301 13.2958 17.6878L13.3017 7.68817" stroke="#A9CCAC" stroke-width="1.5" stroke-linecap="round" stroke-linejoin="round"/>
</svg>
