<svg width="25" height="24" viewBox="0 0 25 24" fill="none" xmlns="http://www.w3.org/2000/svg">
<path d="M3.8566 6H5.8566H21.8566" stroke="#A9CCAC" stroke-width="2" stroke-linecap="round" stroke-linejoin="round"/>
<path d="M8.8566 6V4C8.8566 3.46957 9.06731 2.96086 9.44238 2.58579C9.81746 2.21071 10.3262 2 10.8566 2H14.8566C15.387 2 15.8957 2.21071 16.2708 2.58579C16.6459 2.96086 16.8566 3.46957 16.8566 4V6M19.8566 6V20C19.8566 20.5304 19.6459 21.0391 19.2708 21.4142C18.8957 21.7893 18.387 22 17.8566 22H7.8566C7.32616 22 6.81746 21.7893 6.44238 21.4142C6.06731 21.0391 5.8566 20.5304 5.8566 20V6H19.8566Z" stroke="#A9CCAC" stroke-width="2" stroke-linecap="round" stroke-linejoin="round"/>
</svg>
